<svg id="Capa_1" enable-background="new 0 0 512 512" height="512" viewBox="0 0 512 512" width="512" xmlns="http://www.w3.org/2000/svg"><g><g><path d="m502 371h-10v-254c0-27.57-22.43-50-50-50h-372c-27.57 0-50 22.43-50 50v254h-10c-5.522 0-10 4.477-10 10 0 35.29 28.71 64 64 64h147c5.522 0 10-4.477 10-10s-4.478-10-10-10h-147c-20.823 0-38.314-14.54-42.854-34h183.103 286.604c-4.539 19.46-22.03 34-42.854 34h-146.999c-5.522 0-10 4.477-10 10s4.478 10 10 10h147c35.29 0 64-28.71 64-64 0-5.523-4.478-10-10-10zm-462-254c0-16.542 13.458-30 30-30h372c16.542 0 30 13.458 30 30v254h-85.66l5.135-2.965c2.297-1.326 3.973-3.51 4.659-6.072.687-2.562.327-5.292-.999-7.588l-22.062-38.214 15.445-5.682c3.705-1.363 6.262-4.778 6.525-8.717.264-3.939-1.814-7.665-5.305-9.509l-82.33-43.509c-3.042-1.608-6.695-1.539-9.673.181-2.979 1.72-4.864 4.849-4.993 8.286l-3.485 93.055c-.147 3.945 2.039 7.608 5.583 9.349 3.543 1.742 7.778 1.235 10.812-1.292l12.645-10.536 13.402 23.213h-127.45-164.249zm309.814 198.876 23.001 39.838-20.135 11.626-23-39.838c-1.475-2.555-4.002-4.328-6.906-4.845-.584-.104-1.171-.155-1.754-.155-2.32 0-4.591.809-6.401 2.317l-4.534 3.778 2.05-54.736 48.427 25.592-5.538 2.038c-2.769 1.019-4.946 3.208-5.95 5.981-1.007 2.774-.734 5.85.74 8.404z"/><path d="m93.308 126.355h-14.413c-2.655 0-5.202 1.056-7.078 2.936-1.875 1.879-2.927 4.428-2.922 7.083v.062.003 78.617c0 .673.069 1.33.196 1.966.163 2.427 1.195 4.723 2.935 6.444 1.872 1.852 4.399 2.89 7.031 2.89h.075c.085 0 8.577-.065 15.014-.177 24.028-.419 41.469-21.373 41.469-49.822-.001-29.909-17.003-50.002-42.307-50.002zm.488 79.825c-1.521.026-3.159.05-4.773.071-.03-9.466-.093-50.063-.11-59.896h4.396c10.784 0 22.307 7.881 22.307 30-.002 14.656-6.748 29.562-21.82 29.825z"/><path d="m194.532 206.355h-18v-20h15.936c5.522 0 10-4.477 10-10s-4.478-10-10-10h-15.936v-20h18c5.522 0 10-4.477 10-10s-4.478-10-10-10h-28c-5.522 0-10 4.477-10 10v80c0 5.523 4.478 10 10 10h28c5.522 0 10-4.477 10-10s-4.477-10-10-10z"/><path d="m235.321 226.221c5.46.901 10.597-2.786 11.498-8.235l6.754-40.842 11.064 40.607c.03.111.062.221.097.331 1.535 4.954 6.004 8.272 11.132 8.272h.057c5.152-.024 9.618-3.393 11.112-8.38.031-.107.062-.215.091-.323l10.682-40.573 7.179 41.001c.851 4.857 5.072 8.277 9.839 8.277.572 0 1.153-.049 1.736-.151 5.44-.953 9.078-6.135 8.126-11.575l-13.755-78.554c-.008-.041-.015-.081-.022-.121-1.006-5.358-5.469-9.299-10.853-9.584-5.373-.271-10.213 3.152-11.776 8.358-.032.109-.063.219-.093.329l-12.459 47.324-12.921-47.42c-.03-.111-.062-.222-.097-.332-1.609-5.192-6.489-8.583-11.852-8.249-5.385.336-9.812 4.322-10.767 9.693-.007.04-.014.079-.021.119l-12.986 78.53c-.899 5.449 2.787 10.597 8.235 11.498z"/><path d="m393.106 226.355c27.57 0 50-22.43 50-50s-22.43-50-50-50-50 22.43-50 50 22.43 50 50 50zm0-80c16.542 0 30 13.458 30 30s-13.458 30-30 30-30-13.458-30-30 13.458-30 30-30z"/><circle cx="255.986" cy="435" r="10"/></g></g></svg>