<svg id="Layer_2" height="512" viewBox="0 0 100 100" width="512" xmlns="http://www.w3.org/2000/svg" data-name="Layer 2"><path d="m90 22.2h-21.86v-5.32a7 7 0 0 0 -7-7h-22.28a7 7 0 0 0 -7 7v5.32h-21.86a7 7 0 0 0 -7 7v53.92a7 7 0 0 0 7 7h80a7 7 0 0 0 7-7v-53.92a7 7 0 0 0 -7-7zm-54.14-5.32a3 3 0 0 1 3-3h22.28a3 3 0 0 1 3 3v5.32h-28.28zm-28.86 12.32a3 3 0 0 1 3-3h80a3 3 0 0 1 3 3v12.74a13.14 13.14 0 0 1 -13.12 13.12h-21.67v-6.18a2 2 0 0 0 -2-2h-12.42a2 2 0 0 0 -2 2v6.18h-21.67a13.14 13.14 0 0 1 -13.12-13.12zm47.21 21.68v12.36h-8.42v-12.36zm38.79 32.24a3 3 0 0 1 -3 3h-80a3 3 0 0 1 -3-3v-30.2a17.09 17.09 0 0 0 13.12 6.14h21.67v6.18a2 2 0 0 0 2 2h12.42a2 2 0 0 0 2-2v-6.18h21.67a17.09 17.09 0 0 0 13.12-6.14z"/></svg>